<svg width="224" height="46" viewBox="0 0 224 46" fill="none" xmlns="http://www.w3.org/2000/svg">
<path d="M0.408 45V44.36L1.752 43.848C2.60533 43.5493 3.16 43.144 3.416 42.632C3.672 42.12 3.8 41.4587 3.8 40.648V7.176C3.8 6.32267 3.672 5.64 3.416 5.128C3.16 4.616 2.60533 4.21066 1.752 3.912L0.408 3.4V2.76H16.344V3.4L14.936 3.976C14.2107 4.232 13.72 4.616 13.464 5.128C13.208 5.64 13.08 6.344 13.08 7.24V40.712C13.08 41.5653 13.208 42.2267 13.464 42.696C13.7627 43.1653 14.3173 43.5493 15.128 43.848L16.344 44.36V45H0.408ZM24.024 45V44.36L24.856 44.104C25.7093 43.848 26.1573 43.4213 26.2 42.824C26.2427 42.2267 25.9867 41.544 25.432 40.776L13.144 23.304L29.336 6.792C29.9333 6.19467 30.2533 5.61867 30.296 5.064C30.3813 4.50933 29.976 4.08266 29.08 3.784L27.992 3.4V2.76H37.336V3.4L35.672 3.912C34.7333 4.21066 33.9867 4.57333 33.432 5C32.8773 5.42667 32.2373 6.00267 31.512 6.728L20.056 18.44L35.096 40.392C35.736 41.3307 36.3333 42.0987 36.888 42.696C37.4853 43.2933 38.3173 43.7627 39.384 44.104L40.28 44.36V45H24.024ZM49.835 9.928C48.3843 9.928 47.147 9.48 46.123 8.584C45.1417 7.64533 44.651 6.472 44.651 5.064C44.651 3.61333 45.1417 2.44 46.123 1.544C47.147 0.647998 48.3843 0.199997 49.835 0.199997C51.2857 0.199997 52.5017 0.647998 53.483 1.544C54.4643 2.44 54.955 3.61333 54.955 5.064C54.955 6.472 54.4643 7.64533 53.483 8.584C52.5017 9.48 51.2857 9.928 49.835 9.928ZM42.283 45V44.36L43.179 44.104C44.0323 43.848 44.6083 43.464 44.907 42.952C45.2483 42.44 45.419 41.7573 45.419 40.904V20.872C45.419 19.976 45.2483 19.3147 44.907 18.888C44.6083 18.4187 44.0323 18.0987 43.179 17.928L42.283 17.736V17.096L53.995 13.32L54.635 13.96L54.443 23.048V40.968C54.443 41.8213 54.5923 42.504 54.891 43.016C55.2323 43.528 55.8083 43.912 56.619 44.168L57.259 44.36V45H42.283ZM60.0925 45V44.36L60.9885 44.104C62.4818 43.6773 63.2285 42.632 63.2285 40.968V20.936C63.2285 19.9973 63.0792 19.3147 62.7805 18.888C62.4818 18.4187 61.9058 18.0987 61.0525 17.928L60.0925 17.672V17.032L71.0365 13.32L71.6765 13.96L72.1885 17.8C73.6818 16.4773 75.3672 15.3893 77.2445 14.536C79.1218 13.6827 80.9778 13.256 82.8125 13.256C85.6285 13.256 87.7832 14.024 89.2765 15.56C90.8125 17.096 91.5805 19.4427 91.5805 22.6V41.032C91.5805 42.696 92.3912 43.7413 94.0125 44.168L94.5885 44.36V45H79.4845V44.36L80.3165 44.104C81.8098 43.6347 82.5565 42.5893 82.5565 40.968V20.552C82.5565 17.8213 81.1912 16.456 78.4605 16.456C76.5832 16.456 74.5352 17.3947 72.3165 19.272V41.032C72.3165 42.696 73.0632 43.7413 74.5565 44.168L75.1325 44.36V45H60.0925ZM97.0925 45V44.36L98.0525 44.104C98.9058 43.848 99.4818 43.464 99.7805 42.952C100.122 42.44 100.293 41.7787 100.293 40.968V20.936C100.293 19.9973 100.122 19.3147 99.7805 18.888C99.4818 18.4187 98.9058 18.0987 98.0525 17.928L97.0925 17.672V17.032L108.101 13.32L108.741 13.96L109.317 19.464V19.976C109.914 18.7813 110.682 17.6933 111.621 16.712C112.602 15.688 113.669 14.856 114.821 14.216C116.015 13.576 117.189 13.256 118.341 13.256C119.962 13.256 121.199 13.704 122.053 14.6C122.906 15.496 123.333 16.6267 123.333 17.992C123.333 19.4427 122.906 20.5733 122.053 21.384C121.242 22.152 120.261 22.536 119.109 22.536C117.317 22.536 115.738 21.64 114.373 19.848L114.245 19.72C113.818 19.1227 113.327 18.8027 112.773 18.76C112.218 18.6747 111.706 18.9307 111.237 19.528C110.81 19.912 110.447 20.3813 110.149 20.936C109.893 21.448 109.637 22.0453 109.381 22.728V40.584C109.381 42.2907 110.127 43.3573 111.621 43.784L113.669 44.36V45H97.0925ZM136.927 45.96C135.263 45.96 133.727 45.64 132.319 45C130.953 44.36 129.865 43.336 129.055 41.928C128.287 40.4773 127.924 38.5787 127.967 36.232L128.159 19.784C128.159 18.8027 127.988 18.0987 127.647 17.672C127.305 17.2453 126.772 16.9467 126.047 16.776L125.279 16.52V15.88L136.735 13.64L137.375 14.28L137.055 23.368V38.792C137.055 40.1573 137.439 41.16 138.207 41.8C139.017 42.44 140.02 42.76 141.215 42.76C142.409 42.76 143.476 42.5893 144.415 42.248C145.353 41.9067 146.292 41.3947 147.231 40.712L147.487 19.848C147.487 18.8667 147.337 18.184 147.039 17.8C146.74 17.3733 146.185 17.0747 145.375 16.904L144.735 16.712V16.072L155.935 13.64L156.575 14.28L156.382 23.368V40.712C156.382 41.6507 156.511 42.376 156.767 42.888C157.023 43.4 157.577 43.8267 158.431 44.168L159.071 44.36V45L147.871 45.64L147.295 41.864C145.887 43.016 144.351 43.9973 142.687 44.808C141.065 45.576 139.145 45.96 136.927 45.96ZM161.655 45V44.36L162.615 44.104C163.468 43.848 164.044 43.464 164.343 42.952C164.684 42.44 164.855 41.7787 164.855 40.968V20.936C164.855 19.9973 164.684 19.3147 164.343 18.888C164.044 18.4187 163.468 18.0987 162.615 17.928L161.655 17.672V17.032L172.663 13.32L173.303 13.96L173.879 19.464V19.976C174.476 18.7813 175.244 17.6933 176.183 16.712C177.164 15.688 178.231 14.856 179.383 14.216C180.578 13.576 181.751 13.256 182.903 13.256C184.524 13.256 185.762 13.704 186.615 14.6C187.468 15.496 187.895 16.6267 187.895 17.992C187.895 19.4427 187.468 20.5733 186.615 21.384C185.804 22.152 184.823 22.536 183.671 22.536C181.879 22.536 180.3 21.64 178.935 19.848L178.807 19.72C178.38 19.1227 177.89 18.8027 177.335 18.76C176.78 18.6747 176.268 18.9307 175.799 19.528C175.372 19.912 175.01 20.3813 174.711 20.936C174.455 21.448 174.199 22.0453 173.943 22.728V40.584C173.943 42.2907 174.69 43.3573 176.183 43.784L178.231 44.36V45H161.655ZM201.489 45.96C199.825 45.96 198.289 45.64 196.881 45C195.516 44.36 194.428 43.336 193.617 41.928C192.849 40.4773 192.486 38.5787 192.529 36.232L192.721 19.784C192.721 18.8027 192.55 18.0987 192.209 17.672C191.868 17.2453 191.334 16.9467 190.609 16.776L189.841 16.52V15.88L201.297 13.64L201.937 14.28L201.617 23.368V38.792C201.617 40.1573 202.001 41.16 202.769 41.8C203.58 42.44 204.582 42.76 205.777 42.76C206.972 42.76 208.038 42.5893 208.977 42.248C209.916 41.9067 210.854 41.3947 211.793 40.712L212.049 19.848C212.049 18.8667 211.9 18.184 211.601 17.8C211.302 17.3733 210.748 17.0747 209.937 16.904L209.297 16.712V16.072L220.497 13.64L221.137 14.28L220.945 23.368V40.712C220.945 41.6507 221.073 42.376 221.329 42.888C221.585 43.4 222.14 43.8267 222.993 44.168L223.633 44.36V45L212.433 45.64L211.857 41.864C210.449 43.016 208.913 43.9973 207.249 44.808C205.628 45.576 203.708 45.96 201.489 45.96Z" fill="black"/>
</svg>
